<?xml version="1.0" encoding="utf-8"?>
<!-- Generator: Adobe Illustrator 25.2.1, SVG Export Plug-In . SVG Version: 6.00 Build 0)  -->
<svg version="1.1" id="Capa_1" xmlns="http://www.w3.org/2000/svg" xmlns:xlink="http://www.w3.org/1999/xlink" x="0px" y="0px"
	 viewBox="0 0 1100 330" style="enable-background:new 0 0 1100 330;" xml:space="preserve">
<style type="text/css">
	.st0{fill:#B48543;}
</style>
<g>
	<path class="st0" d="M1100,237.39c-8.21-0.91-16.55-1.39-25-1.39c-60.12,0-114.73,23.58-155.1,62h39.18
		c32.7-23.3,72.71-37,115.92-37c8.47,0,16.81,0.53,25,1.56V237.39z"/>
</g>
<g>
	<g>
		<path class="st0" d="M964.04,325c0-7.14,3.09-13.91,8.63-20H25V25h1050v211c8.45,0,16.79,0.48,25,1.39V0H0v330h964.55
			C964.22,328.36,964.04,326.69,964.04,325z"/>
	</g>
</g>
<g>
	<path class="st0" d="M1083,268.68c-2.65-0.11-5.32-0.18-8-0.18c-55.71,0-105.88,23.67-141.03,61.5h36.66
		c28.63-22.84,64.9-36.5,104.37-36.5c2.68,0,5.35,0.07,8,0.19V268.68z"/>
</g>
<rect x="1075" y="250" class="st0" width="8" height="32"/>
<rect x="1075" y="235" class="st0" width="25" height="3"/>
</svg>
