<?xml version="1.0" encoding="utf-8"?>
<!-- Generator: Adobe Illustrator 25.2.1, SVG Export Plug-In . SVG Version: 6.00 Build 0)  -->
<svg version="1.1" id="Capa_1" xmlns="http://www.w3.org/2000/svg" xmlns:xlink="http://www.w3.org/1999/xlink" x="0px" y="0px"
	 viewBox="0 0 722.83 722.83" style="enable-background:new 0 0 722.83 722.83;" xml:space="preserve">
<style type="text/css">
	.st0{fill:none;stroke:#B48543;stroke-width:25;stroke-linecap:round;stroke-linejoin:round;stroke-miterlimit:10;}
	.st1{fill:none;stroke:#000000;stroke-width:5;stroke-miterlimit:10;}
</style>
<g>
	<path class="st0" d="M173,385.94c-149.28,80.59-244.07-204.77-29.72-202.9c-9.47-30.61,26.86-54.61,50.42-45.58
		c-24.66-164.04,350.53-159.41,317.5-2.2c29.06-14.53,60.44,25.43,48.88,45.58c239.78-11.23,138.72,284.04-9.25,198.83"/>
	<path class="st0" d="M172.34,334.75c133.84,128.49,163.37,252.72,55.49,371.36"/>
	<path class="st0" d="M561.4,331.45c-117.25,120.89-168.51,244.57-55.49,375.19"/>
	<line class="st0" x1="371.83" y1="320.88" x2="371.83" y2="491.96"/>
	<path class="st0" d="M247.64,491.96c-58.31,38.69,29.06,44.26,91.82,37.65"/>
	<path class="st0" d="M490.73,519.05c50.2,34.68-15.85,53.5-163.16,46.9"/>
</g>
<path class="st1" d="M1270.28,287.82"/>
</svg>
